<?xml version="1.0" standalone="no"?>
<!DOCTYPE svg PUBLIC "-//W3C//DTD SVG 20010904//EN"
 "http://www.w3.org/TR/2001/REC-SVG-20010904/DTD/svg10.dtd">
<svg version="1.0" xmlns="http://www.w3.org/2000/svg"
 width="700.000000pt" height="700.000000pt" viewBox="0 0 700.000000 700.000000"
 preserveAspectRatio="xMidYMid meet">
<metadata>
Created by potrace 1.14, written by Peter Selinger 2001-2017
</metadata>
<g transform="translate(0.000000,700.000000) scale(0.100000,-0.100000)"
fill="#000000" stroke="none">
<path d="M3249 6936 c-2 -2 -40 -7 -84 -10 -88 -8 -132 -13 -185 -22 -19 -3
-48 -7 -65 -10 -16 -2 -41 -6 -55 -9 -14 -3 -41 -8 -60 -11 -19 -3 -71 -15
-115 -26 -44 -11 -88 -22 -99 -24 -37 -7 -253 -77 -336 -109 -315 -121 -614
-293 -875 -504 -79 -64 -75 -60 -181 -162 -137 -132 -227 -233 -329 -369 -26
-36 -76 -92 -110 -125 -115 -111 -261 -365 -415 -720 -85 -195 -169 -466 -199
-640 -6 -33 -13 -73 -16 -90 -3 -16 -7 -41 -9 -55 -3 -14 -7 -50 -11 -81 -3
-31 -8 -66 -10 -77 -23 -121 -23 -593 -1 -753 3 -19 10 -68 16 -109 17 -130
33 -211 71 -363 276 -1107 1118 -2021 2208 -2398 107 -37 334 -101 406 -114
142 -26 206 -37 240 -41 22 -3 49 -7 61 -9 44 -9 236 -19 384 -19 147 0 386
11 399 18 3 2 35 7 71 10 71 7 258 43 385 75 339 83 680 224 970 399 580 350
1050 886 1330 1517 72 162 175 461 200 583 37 179 65 330 70 382 4 36 9 74 11
84 15 82 21 422 10 591 -29 435 -149 892 -332 1257 -48 98 -164 291 -176 296
-4 2 -8 8 -8 13 0 26 -236 357 -349 489 -127 149 -356 360 -512 473 -13 9 -52
37 -85 61 -106 76 -293 185 -452 262 -83 41 -158 74 -165 74 -7 0 -17 4 -22 9
-20 18 -389 140 -469 155 -11 2 -39 9 -61 14 -46 13 -170 37 -235 47 -25 4
-52 9 -60 10 -8 2 -44 6 -80 10 -36 4 -74 9 -85 12 -25 6 -580 15 -586 9z"/>
</g>
</svg>
